<?xml version="1.0" encoding="UTF-8"?>
<svg width="1200pt" height="1200pt" version="1.1" viewBox="0 0 1200 1200" xmlns="http://www.w3.org/2000/svg">
 <path d="m164.87 936.85-164.87 164.74 98.484 98.41 164.87-164.75 77.734 77.676 0.003906-253.75-253.95 0.011719zm42.398-30.094c5.7734 0 10.453-4.6797 10.453-10.441 0-2.9531-1.2461-5.6172-3.2383-7.5117l34.691-0.011719c-1.9922 1.9062-3.2266 4.5703-3.2266 7.5234 0 5.7617 4.668 10.441 10.441 10.441 5.7734 0 10.453-4.6797 10.453-10.441 0-2.9531-1.2461-5.6172-3.2383-7.5234h34.766c-1.9922 1.8945-3.2383 4.5703-3.2383 7.5234 0 5.7617 4.6797 10.441 10.453 10.441 2.1719 0 4.1992-0.67187 5.8672-1.8125v31.895c-1.6797-1.1406-3.6953-1.8008-5.8672-1.8008-5.7734 0-10.453 4.6797-10.453 10.43 0 5.7617 4.6797 10.441 10.453 10.441 2.1719 0 4.1992-0.67188 5.8672-1.8125v31.848c-1.6797-1.1523-3.6953-1.8125-5.8672-1.8125-5.7734 0-10.453 4.6797-10.453 10.441 0 5.7461 4.6797 10.43 10.453 10.43 2.1719 0 4.1992-0.67188 5.8672-1.8008v38.219l-44.832-44.785c1.4648-7.1641-4.4648-12.492-10.234-12.492-5.7617 0-10.441 4.6797-10.441 10.441 0 4.3672 2.7109 8.1133 6.5391 9.6602l-10.957 10.945c-1.5586-3.793-5.293-6.4688-9.6484-6.4688-5.7617 0-10.441 4.6797-10.441 10.43 0 4.3555 2.6758 8.0898 6.4805 9.6602l-10.992 10.969c-1.5586-3.793-5.293-6.4688-9.6602-6.4688-5.7617 0-10.441 4.668-10.441 10.43 0 4.3555 2.6758 8.0898 6.4805 9.6484l-10.992 10.98c-1.5703-3.7578-5.293-6.4062-9.6367-6.4062-5.7617 0-10.441 4.6797-10.441 10.43 0 4.3438 2.6523 8.0508 6.4219 9.6367l-10.957 10.934c-1.5703-3.7578-5.293-6.4219-9.6367-6.4219-5.7617 0-10.441 4.6797-10.441 10.43 0 4.3438 2.6523 8.0625 6.4336 9.6367l-10.906 10.895c-1.5859-3.7578-5.293-6.3828-9.625-6.3828-5.7734 0-10.441 4.6797-10.441 10.441 0 4.3086 2.6289 8.0273 6.3828 9.6133l-10.945 10.934c-1.5391-3.832-5.2734-6.5078-9.6406-6.5078-5.7617 0-10.441 4.6797-10.441 10.441 0 4.3438 2.6758 8.0742 6.4805 9.6367l-6.4336 6.4219-56.555-56.508 7.5-7.5c0.57422 5.2305 4.957 9.2891 10.32 9.2891 5.7617 0 10.441-4.6797 10.441-10.441 0-5.3633-4.0664-9.7305-9.2891-10.309l13.141-13.129c0.57813 5.2266 4.957 9.2969 10.332 9.2969 5.7617 0 10.441-4.6797 10.441-10.441 0-5.3633-4.0781-9.7422-9.3125-10.32l13.055-13.043c0.63672 5.1484 4.9922 9.1562 10.309 9.1562 5.7617 0 10.441-4.6797 10.441-10.43 0-5.3164-3.9961-9.6719-9.1562-10.309l13.043-13.031c0.625 5.1836 4.9805 9.2031 10.32 9.2031 5.7617 0 10.441-4.6797 10.441-10.441 0-5.3281-4.0312-9.6836-9.2031-10.297l12.996-12.984c0.63672 5.1484 4.9922 9.1562 10.309 9.1562 5.7734 0 10.441-4.6797 10.441-10.43 0-5.3281-3.9961-9.6836-9.1562-10.309l13.008-12.996c0.60156 5.1836 4.9688 9.2266 10.32 9.2266 5.7734 0 10.441-4.6797 10.441-10.43 0-5.3398-4.043-9.7188-9.2266-10.309l13.055-13.055c0.61328 5.1953 4.9688 9.2266 10.309 9.2266 5.7734 0 10.453-4.6797 10.453-10.441 0-5.7461-4.6797-10.43-10.453-10.43-0.70703 0-1.4023 0.070312-2.0625 0.21484l-46.488-46.441h41.34c-1.9922 1.8945-3.2266 4.5586-3.2266 7.5117 0.015625 5.7305 4.6953 10.398 10.457 10.398zm-120.12-565.95 253.96 0.011719v-253.75l-77.734 77.676-164.88-164.75-98.484 98.41 164.87 164.73zm74.809-122.47c3.8398-1.5469 6.5508-5.2812 6.5508-9.6719 0-5.7617-4.668-10.441-10.441-10.441-4.3906 0-8.1367 2.7227-9.6719 6.5508l-11.016-11.004c3.8633-1.5352 6.6016-5.2812 6.6016-9.6836 0-5.7617-4.6797-10.441-10.441-10.441-4.4023 0-8.1602 2.7344-9.6953 6.5898l-11.074-11.062c3.8398-1.5352 6.5508-5.2812 6.5508-9.6719 0-5.7617-4.6797-10.441-10.441-10.441-4.3906 0-8.1367 2.7227-9.6719 6.5508l-11.016-11.004c3.875-1.5234 6.625-5.2695 6.625-9.6953 0-5.7617-4.6797-10.43-10.441-10.43-4.4141 0-8.1719 2.7461-9.6953 6.625l-11.09-11.074c3.8789-1.5117 6.6133-5.2656 6.6133-9.6719 0-5.7461-4.6797-10.43-10.441-10.43-4.4141 0-8.1602 2.7461-9.6953 6.6016l-8.1328-8.125 56.555-56.508 9.0859 9.0703c-5.1367 0.66406-9.1328 4.9961-9.1328 10.301 0 5.7617 4.6797 10.441 10.441 10.441 5.3164 0 9.6602-3.9961 10.309-9.1328l12.984 12.973c-5.125 0.67187-9.0859 4.9922-9.0859 10.297 0 5.7617 4.668 10.441 10.441 10.441 5.3047 0 9.6367-3.9727 10.309-9.0859l12.863 12.863c-5.1133 0.67188-9.0703 5.0039-9.0703 10.297 0 5.7617 4.6797 10.441 10.441 10.441 5.3047 0 9.625-3.9609 10.309-9.0703l12.926 12.926c-5.1016 0.68359-9.0586 5.0039-9.0586 10.285 0 5.7617 4.6797 10.441 10.441 10.441 5.293 0 9.625-3.9609 10.297-9.0586l12.91 12.898c-5.1133 0.68359-9.0586 5.0039-9.0586 10.297 0 5.7617 4.668 10.441 10.441 10.441 5.3047 0 9.6367-3.9609 10.309-9.0586l12.926 12.91c-5.1133 0.68359-9.0586 5.0039-9.0586 10.297 0 5.7461 4.6797 10.43 10.441 10.43 5.293 0 9.625-3.9492 10.297-9.0469l12.898 12.887c-5.1484 0.64844-9.1328 4.9922-9.1328 10.309 0 5.7617 4.668 10.43 10.441 10.43 5.7734 0 10.453-4.668 10.453-10.43 0-1.6094-0.39453-3.1094-1.043-4.4648l10.754-10.738c3.2773 1.5703 8.2422 1.6445 11.879-2.0039 3.3125-3.3125 3.793-8.1484 2.0039-11.867l21.023-21.012v41.461c-1.6797-1.1523-3.6953-1.8125-5.8672-1.8125-5.7734 0-10.453 4.6797-10.453 10.441s4.6797 10.43 10.453 10.43c2.1719 0 4.1992-0.67188 5.8672-1.8008v31.836c-1.6797-1.1406-3.6953-1.8125-5.8672-1.8125-5.7734 0-10.453 4.668-10.453 10.441 0 5.7617 4.6797 10.441 10.453 10.441 2.1719 0 4.1992-0.67188 5.8672-1.8125v31.766c-3.0703-2.0898-8.6055-3.0703-12.973 0.97266-3.7422 3.4688-3.8516 8.8438-2.3281 12.086h-30.336c0.63672-1.3438 1.0195-2.832 1.0195-4.4297 0-5.7617-4.6797-10.441-10.453-10.441-5.7617 0-10.441 4.668-10.441 10.441 0 1.5859 0.38281 3.0703 1.0195 4.4297h-30.266c0.63672-1.3438 1.0195-2.832 1.0195-4.4141 0-5.7617-4.6797-10.441-10.453-10.441-5.7617 0-10.441 4.668-10.441 10.441 0 1.5859 0.38281 3.0703 1.0078 4.4141h-39.133l19.488-19.465c3.1914 1.5234 8.3867 1.4648 11.867-2.0156 3.1211-3.1211 3.9258-7.8477 2.0039-11.855l10.715-10.703c1.3555 0.64844 2.8672 1.043 4.4766 1.043 5.7734 0 10.453-4.6797 10.453-10.441 0-5.7617-4.6797-10.441-10.453-10.441-4.4141 0-8.1602 2.7461-9.6953 6.6133l-11.016-11.004c3.8516-1.5352 6.5742-5.2812 6.5742-9.6719 0-5.7617-4.668-10.441-10.441-10.441-4.3906 0-8.1367 2.7227-9.6836 6.5625zm873.18 44.809 164.87-164.74-98.484-98.41-164.87 164.75-77.734-77.676v253.75h253.95zm-41.137 33.191c-5.7734 0-10.441 4.668-10.441 10.441 0 1.5859 0.37109 3.0859 1.0195 4.4297h-30.254c0.63672-1.3438 1.0195-2.8438 1.0195-4.4297 0-5.7617-4.6797-10.441-10.441-10.441-5.7734 0-10.441 4.668-10.441 10.441 0 1.5859 0.38281 3.0859 1.0195 4.4297h-30.395c1.1172-2.3516 1.8711-7.8242-1.9805-11.746-3.0703-3.1328-9.4453-5.0273-14.531-0.3125v-33.77c1.8711 1.7383 4.3438 2.8086 7.0938 2.8086 5.7617 0 10.441-4.6797 10.441-10.441s-4.6797-10.441-10.441-10.441c-2.7461 0-5.2188 1.0781-7.0938 2.8086v-33.84c1.8711 1.7383 4.3438 2.8086 7.0938 2.8086 5.7617 0 10.441-4.668 10.441-10.43s-4.6797-10.441-10.441-10.441c-2.7461 0-5.2188 1.0781-7.0938 2.8086v-42.457l21.961 21.949c-3.7305 10.199 7.2344 15.574 13.332 13.32l11.258 11.258c-0.40625 1.1172-0.67188 2.3047-0.67188 3.5625 0 5.7617 4.668 10.43 10.441 10.43 5.7617 0 10.441-4.668 10.441-10.43 0-5.7227-4.5977-10.344-10.285-10.43l14.016-14.004c0.070312 5.6875 4.7148 10.285 10.43 10.285 5.7617 0 10.441-4.6797 10.441-10.43 0-5.7227-4.6094-10.344-10.297-10.43l13.945-13.934c0.12109 5.6641 4.7383 10.211 10.414 10.211 5.7617 0 10.441-4.668 10.441-10.441 0-5.6875-4.5586-10.285-10.223-10.414l13.992-13.992c0.10938 5.6758 4.7383 10.262 10.43 10.262 5.7617 0 10.441-4.6797 10.441-10.441 0-5.6992-4.5703-10.309-10.246-10.402l13.934-13.934c0.13281 5.6523 4.7383 10.211 10.414 10.211 5.7617 0 10.441-4.6797 10.441-10.441 0-5.6758-4.5586-10.273-10.211-10.402l13.957-13.957c0.085937 5.6875 4.7148 10.285 10.414 10.285 5.7617 0 10.453-4.6797 10.453-10.441 0-5.7109-4.5977-10.332-10.285-10.414l14.016-14.004c0.085937 5.6992 4.7148 10.285 10.43 10.285 5.7461 0 10.43-4.6797 10.43-10.441 0-5.7109-4.5977-10.332-10.285-10.414l8.9766-8.9531 56.555 56.508-7.2852 7.2852c-1.7266-3.4062-5.2188-5.7617-9.2773-5.7617-5.7617 0-10.453 4.6797-10.453 10.43 0 4.0664 2.3633 7.5586 5.7617 9.2773l-10.57 10.559c-1.7383-3.3711-5.207-5.6992-9.2539-5.6992-5.7617 0-10.441 4.668-10.441 10.43 0 4.0547 2.3281 7.5234 5.7109 9.2539l-10.609 10.598c-1.7266-3.3711-5.207-5.7109-9.2539-5.7109-5.7617 0-10.453 4.6797-10.453 10.441 0 4.043 2.3398 7.5117 5.7109 9.2539l-10.609 10.598c-1.7383-3.3711-5.207-5.6992-9.2539-5.6992-5.7617 0-10.43 4.668-10.43 10.441 0 4.043 2.3164 7.5117 5.6992 9.2539l-10.621 10.609c-1.7266-3.3711-5.207-5.7227-9.2539-5.7227-5.7617 0-10.441 4.6797-10.441 10.441 0 4.0547 2.3281 7.5234 5.7227 9.2539l-10.57 10.559c-1.7383-3.3594-5.1953-5.6758-9.2539-5.6758-5.7617 0-10.441 4.668-10.441 10.441 0 4.0312 2.3281 7.5 5.6875 9.2383l-10.609 10.598c-1.7266-3.4062-5.207-5.7617-9.2773-5.7617-5.7734 0-10.441 4.668-10.441 10.441 0 5.7617 4.668 10.441 10.441 10.441 1.2617 0 2.4609-0.25391 3.5742-0.67187l11.281 11.27c-2.5195 6.9727 3.7422 16.777 13.32 13.32l19.105 19.094h-37.871c0.63672-1.3438 1.0312-2.8438 1.0312-4.4297-0.007812-5.7695-4.6875-10.438-10.449-10.438zm22.188 367.39c0-50.184-38.566-103.36-99.012-118.5 24.191-19.992 39.035-50.137 39.035-82.5 0-55.848-44.617-106.97-107.04-106.97-59.039 0-107.06 47.988-107.06 106.97 0 32.484 14.977 62.746 39.301 82.754-26.184 6.6484-49.668 20.52-67.691 40.297-13.465-7.6797-27.887-13.211-42.84-16.488 29.219-22.008 47.578-56.965 47.578-94.848 0-65.438-53.27-118.67-118.77-118.67s-118.77 53.23-118.77 118.67c0 37.992 18.48 73.031 47.82 95.039-14.891 3.3594-29.52 8.9531-43.152 16.559-18.047-19.922-41.617-33.887-67.934-40.559 24.336-20.004 39.301-50.258 39.301-82.754 0-58.98-48.012-106.97-107.05-106.97-62.711 0-107.04 51.469-107.04 106.97 0 32.363 14.855 62.508 39.035 82.5-60.445 15.145-99.012 68.316-99.012 118.5v176.14h229.93v60.012h373.77v-60.012h229.6zm-244.43-201c0-42.648 34.738-77.34 77.41-77.34s77.387 34.691 77.387 77.34c0 42.637-34.727 77.328-77.387 77.328-42.684-0.011719-77.41-34.703-77.41-77.328zm61.379 107.88h32.016l-16.008 19.547zm41.316 172.55-25.309 25.824-25.309-25.824 25.309-116.96zm-363.88-268.73c0-49.105 39.973-89.039 89.113-89.039s89.113 39.949 89.113 89.039c0 49.094-39.973 89.039-89.113 89.039s-89.113-39.938-89.113-89.039zm68.34 121.27h41.566l-20.773 25.391zm50.883 197.54-30.098 30.719-30.098-30.719 30.098-139.05zm-357.28-330.52c0-42.648 34.715-77.34 77.387-77.34 42.684 0 77.398 34.691 77.398 77.34 0 42.637-34.727 77.328-77.398 77.328-42.672-0.011719-77.387-34.703-77.387-77.328zm77.402 127.44-16.008-19.547h32.016zm0.011719 36.023 25.309 116.96-25.309 25.824-25.309-25.824zm68.184 49.211c0 4.7266 3.1562 8.6641 7.4531 9.9492-0.875 5.7344-0.85156 5.6055-1.3438 29.676-3.5898 1.6562-6.1094 5.2578-6.1094 9.4688s2.5078 7.8125 6.1094 9.4688v30.227c-3.5898 1.6445-6.1094 5.2578-6.1094 9.457 0 4.2227 2.5078 7.8125 6.1094 9.4688v27.109l-144.47-0.003907v-26.266c6.6484 0.57422 11.711-4.5469 11.711-10.309 0-5.7617-6.0703-11.484-11.711-10.297v-28.535c6.8398 0.53906 11.711-4.5586 11.711-10.309 0-5.7617-5.4727-11.316-11.711-10.309v-28.477c6.4453 1.0781 11.711-4.5352 11.711-10.297 0-5.7617-5.0625-11.004-11.711-10.297v-8.6289h-14.617c1.0547-1.6328 1.6914-3.5625 1.6914-5.6523 0-5.7617-4.6797-10.43-10.453-10.43-5.7617 0-10.441 4.668-10.441 10.43 0 5.7617 4.668 10.43 10.441 10.43 1.8711 0 3.6133-0.52734 5.1367-1.3906v31.02c-1.5234-0.86328-3.2539-1.4023-5.1367-1.4023-5.7617 0-10.441 4.6797-10.441 10.441 0 5.7461 4.668 10.43 10.441 10.43 1.8711 0 3.6133-0.52734 5.1367-1.3906v31.078c-1.5234-0.86328-3.2539-1.3906-5.1367-1.3906-5.7617 0-10.441 4.6797-10.441 10.43 0 5.7617 4.668 10.441 10.441 10.441 1.8711 0 3.6133-0.53906 5.1367-1.4023v31.078c-1.5234-0.86328-3.2539-1.3906-5.1367-1.3906-5.7617 0-10.441 4.6797-10.441 10.43 0 5.7617 4.668 10.441 10.441 10.441 1.8711 0 3.6133-0.53906 5.1367-1.4023v2.9648h-48.973v-146.54c0-13.188 3.2773-25.609 8.9648-36.816 0.33594 5.4609 4.8242 9.7812 10.379 9.7812 5.7617 0 10.441-4.6797 10.441-10.43 0-5.7617-4.6797-10.441-10.441-10.441-1.5977 0-3.0977 0.38281-4.4414 1.0312 10.668-15.695 26.207-28.332 43.766-36.406 1.4141 4.0938 5.2578 7.0312 9.8281 7.0312 5.7734 0 12.434-5.7109 9.8047-13.906 6.457-1.5703 13.02-2.5664 19.586-2.8555l25.98 31.715-3.0117 13.934c-6.0352-1.9453-13.609 2.5195-13.609 9.8867 0 5.3398 4.0312 9.7188 9.2383 10.309l-13.246 61.176c-0.99609-4.7148-5.1836-8.2578-10.199-8.2578-5.7734 0-10.453 4.6797-10.453 10.441 0 5.7461 4.6797 10.43 10.453 10.43 3.4688 0 6.5039-1.7031 8.4102-4.2969l-7.0781 32.723c-6.1914-1.4023-11.773 4.5469-11.773 10.297 0 5.7617 4.6797 10.441 10.453 10.441 2.6641 0 5.0625-1.0312 6.9102-2.6758l9.8398 10.043c-4.8828 4.9453-1.4414 12.133 0.37109 14.004 1.8945 1.9688 7.2461 5.8555 14.125 0.78125l9.8633 10.066c-1.4297 1.7773-2.3164 4.0195-2.3164 6.4805 0 5.7617 4.668 10.441 10.441 10.441 5.7617 0 10.441-4.6797 10.441-10.441 0-5.0625-3.6133-9.2773-8.4102-10.234l12.289-12.539c0.86328 4.8945 5.1133 8.6406 10.273 8.6406 5.7617 0 10.453-4.6797 10.453-10.441 0-5.2305-3.8633-9.5156-8.8906-10.262l12.648-12.898c0.69531 5.1016 5.0039 9.0352 10.297 9.0352 5.7734 0 10.441-4.6797 10.441-10.441 0-5.7461-4.668-10.43-10.441-10.43-4.3086 0-8.0039 2.6172-9.6133 6.3359l-12.84-59.34c4.7773-0.96094 8.3867-5.1719 8.3867-10.234 0-8.3047-8.2578-11.195-12.805-10.152l-13.598-62.82c2.9414-3.5898 7.8008-9.5273 12.707-15.516 3.9727 1.3086 9.0859 0.13281 11.902-4.0195 2.7969-4.1172 1.332-9.9961 0.38281-10.992 0.32422-0.39453 0.64844-0.79297 0.94922-1.1523 9.7812 0.43359 19.5 2.3516 28.801 5.5312-0.33594 4.7031 3.2148 11.195 10.367 11.195 2.9648 0 5.6289-1.2461 7.5234-3.2266 4.3203 2.3984 8.4844 5.0742 12.445 8.0273-3.4688 1.7031-5.8672 5.2188-5.8672 9.3359v0.023437 0.023437c0 5.7617 4.668 10.441 10.441 10.441 4.5117 0 8.3281-2.8789 9.7812-6.8984 1.9219 2.0625 3.7812 4.1992 5.5195 6.4219-16.883 14.16-30.383 32.27-37.824 53.543-1.8906-0.35938-12.473-0.28906-12.473 10.234zm338.82 194.85h-57.684v-175.81h-18.238s0 127.97-0.011719 175.81h-162.62v-175.82h-18.254v175.81h-57.684l0.003906-167.58c0-62.207 60.695-104.83 112.96-106.85l30.254 36.949-35.965 166.23 50.004 51.023 50.004-51.023-35.977-166.25c6.6836-8.1602 23.543-28.754 30.238-36.938 60.66 2.1953 112.97 51.156 112.97 106.85zm229.59-60.027h-48.973v-4.5859c1.8828 1.8594 4.4766 3.0234 7.332 3.0234 5.7617 0 10.441-4.6797 10.441-10.441 0-5.7461-4.6797-10.43-10.441-10.43-2.8555 0-5.4492 1.1523-7.332 3.0117v-34.309c1.8828 1.8594 4.4766 3.0234 7.332 3.0234 5.7617 0 10.441-4.6797 10.441-10.441 0-5.7461-4.6797-10.43-10.441-10.43-2.8555 0-5.4492 1.1523-7.332 3.0117v-34.309c1.8828 1.8594 4.4766 3.0117 7.332 3.0117 5.7617 0 10.441-4.6797 10.441-10.43 0-5.7617-4.6797-10.441-10.441-10.441-2.8555 0-5.4492 1.1641-7.332 3.0234v-34.246c1.8828 1.8594 4.4766 3.0117 7.332 3.0117 5.7617 0 10.441-4.668 10.441-10.43 0-5.7617-4.6797-10.441-10.441-10.441-5.7734 0-10.441 4.6797-10.441 10.441 0 2.0898 0.63672 4.0195 1.6914 5.6523h-16.824v8.5938c-5.293 0.50391-9.4453 4.9062-9.4453 10.332 0 5.4258 4.1523 9.8281 9.4453 10.332v28.414c-5.293 0.50391-9.4453 4.9062-9.4453 10.332 0 5.4102 4.1523 9.8281 9.4453 10.332v28.477c-5.293 0.51562-9.4453 4.9062-9.4453 10.332 0 5.4258 4.1523 9.8281 9.4453 10.332v26.242l-144.12 0.015625v-26.449c4.5977-1.0938 8.0156-5.207 8.0156-10.129s-3.4219-9.0234-8.0156-10.129v-28.895c4.5977-1.1055 8.0156-5.207 8.0156-10.129 0-4.9219-3.4219-9.0234-8.0156-10.129v-11.723c0.011719-5.6875-0.49219-11.328-1.3906-16.922 5.2812-0.51562 9.4062-4.9219 9.4062-10.32 0-5.7617-4.6797-10.43-10.441-10.43-1.4648 0-2.8555 0.30078-4.1289 0.83984-7.3672-20.426-20.617-39.227-37.969-54.191 2.2422-2.8672 4.6562-5.6172 7.2109-8.2422 0.81641 4.9453 5.0898 8.7227 10.262 8.7227 5.7617 0 10.453-4.668 10.453-10.441 0 0-0.011718-0.011719-0.011718-0.023437 0-0.011719 0.011718-0.011719 0.011718-0.023438 0-4.668-3.0977-8.5664-7.3203-9.8984 4.2109-3.0859 8.6641-5.8555 13.246-8.3164 1.9219 2.4609 4.8711 4.0781 8.2422 4.0781 5.7617 0 11.398-5.6523 10.285-11.902 8.6523-2.7461 17.617-4.4297 26.629-4.8242 6.0117 7.3438 19.969 24.395 25.934 31.68l-4.2109 19.441c-1.668-3.5625-5.2578-6.0586-9.457-6.0586-5.7617 0-10.43 4.6797-10.43 10.441 0 5.7461 4.668 10.43 10.43 10.43 2.6172 0 4.9688-0.99609 6.8047-2.5781l-6.6953 30.875c-0.035156 0-0.070313-0.011719-0.12109-0.011719-5.7617 0-10.43 4.668-10.43 10.43 0 4.2617 2.5547 7.9219 6.2383 9.5391l-12.434 57.457c-1.9062-2.2812-4.7539-3.7578-7.9805-3.7578-5.7617 0-10.43 4.6797-10.43 10.43 0 5.7617 4.668 10.441 10.43 10.441 4.6445 0 8.5312-3.0469 9.8867-7.2344l11.316 11.543c-4.0938 1.4141-7.0312 5.2578-7.0312 9.8164 0 5.7617 4.668 10.441 10.43 10.441 4.5 0 8.2812-2.8438 9.7578-6.8164l11.016 11.242c-3.9258 1.5-6.7188 5.2695-6.7188 9.7188 0 5.7617 4.6914 10.441 10.453 10.441 5.7617 0 10.43-4.6797 10.43-10.441 0-3.0234-1.3086-5.7344-3.3711-7.6445l9.8164-10.02c1.9062 2.1484 4.668 3.5273 7.7656 3.5273 5.7617 0 10.441-4.6797 10.441-10.441 0-3.1797-1.4531-5.9883-3.707-7.8945l9.8164-10.02c1.9219 2.2812 4.7539 3.7812 7.9805 3.7812 5.7617 0 10.441-4.6797 10.441-10.441 0-5.7461-4.6797-10.43-10.441-10.43-1.1875 0-2.3047 0.23828-3.3711 0.60156l-22.211-102.66c7.0078 0.69531 11.484-4.7773 11.484-10.32 0-5.7617-4.6797-10.441-10.441-10.441-1.9062 0-3.6953 0.5625-5.2305 1.4531l-3.2266-14.832 25.98-31.715c7.2734 0.32422 14.566 1.5 21.695 3.3945-0.27734 0.9375-0.46875 1.9062-0.46875 2.9414 0 5.7734 4.668 10.441 10.43 10.441 4.2344 0 7.8477-2.5195 9.4922-6.1328 5.8789 2.832 11.531 6.2031 16.812 10.02-7.1641-1.1758-12.156 4.4883-12.156 10.246v0.023438 0.023437c0 5.7617 4.668 10.441 10.441 10.441 5.7617 0 10.441-4.668 10.441-10.441v-0.023437-0.023438c0-1.3906-0.27734-2.7344-0.78125-3.9492 6.2539 5.4609 11.82 11.594 16.512 18.301-6.6367-1.2461-12.023 4.5117-12.023 10.273 0 5.7461 4.6914 10.43 10.453 10.43 4.3555 0 8.1016-2.6875 9.6602-6.4805 4.7031 10.332 7.3789 21.613 7.3789 33.516l-0.011719 146.49zm126.32 48.949h-253.95v253.75l77.734-77.676 164.87 164.75 98.484-98.41-164.87-164.74zm-72.047 125.25c-4.6211 1.0781-8.0742 5.1953-8.0742 10.152 0 5.7461 4.6797 10.43 10.441 10.43 4.9453 0 9.0703-3.457 10.152-8.0625l12.086 12.07c-4.6094 1.0781-8.0508 5.1953-8.0508 10.129 0 5.7617 4.668 10.441 10.43 10.441 4.9453 0 9.0703-3.4453 10.152-8.0508l12.07 12.059c-4.6211 1.0781-8.0625 5.1953-8.0625 10.141 0 5.7617 4.6914 10.43 10.453 10.43 4.9336 0 9.0469-3.4336 10.141-8.0508l12.133 12.121c-4.6445 1.0664-8.125 5.1953-8.125 10.152 0 5.7617 4.6797 10.441 10.441 10.441 4.9688 0 9.1094-3.4688 10.164-8.1133l12.086 12.07c-4.668 1.0312-8.1836 5.1953-8.1836 10.176 0 5.7617 4.6914 10.441 10.453 10.441 4.9805 0 9.1445-3.5039 10.176-8.1836l6.3945 6.3828-56.555 56.508-6.1328-6.1211c4.2969-1.2852 7.4414-5.2305 7.4414-9.9375v-0.011719c0-5.7461-4.6797-10.43-10.43-10.43-4.7266 0-8.6758 3.1562-9.9609 7.4414l-11.605-11.594c4.2617-1.3086 7.4023-5.2422 7.4023-9.9258 0-5.7617-4.6914-10.441-10.453-10.441-4.6914 0-8.6289 3.1328-9.9375 7.3906l-11.617-11.605c4.2617-1.3203 7.3789-5.2422 7.3789-9.9375 0-5.7461-4.6797-10.43-10.441-10.43-4.6914 0-8.6289 3.1211-9.9375 7.3789l-11.578-11.578c4.2852-1.3086 7.4141-5.2422 7.4141-9.9492 0-5.7461-4.6797-10.43-10.441-10.43-4.7148 0-8.6523 3.1445-9.9492 7.4141l-11.699-11.699c4.2852-1.2852 7.4414-5.2305 7.4414-9.9375 0-5.7617-4.6797-10.43-10.441-10.43-4.7266 0-8.6641 3.1445-9.9492 7.4297l-11.629-11.617c4.332-1.2734 7.5117-5.2305 7.5117-9.9727 0-5.7461-4.6797-10.43-10.441-10.43-4.7539 0-8.7109 3.1797-9.9844 7.5l-11.688-11.676c4.3203-1.2617 7.5117-5.2305 7.5117-9.9609 0-5.7617-4.6797-10.441-10.441-10.441-5.7734 0-11.039 5.1367-10.344 11.328l-45.984 45.949v-39.227c1.8711 1.7383 4.3438 2.8086 7.0938 2.8086 5.7617 0 10.441-4.6797 10.441-10.43 0-5.7617-4.6797-10.441-10.441-10.441-2.7461 0-5.2188 1.0938-7.0938 2.8086v-33.84c1.8711 1.7383 4.3438 2.8086 7.0938 2.8086 5.7617 0 10.441-4.6797 10.441-10.441 0-5.7461-4.6797-10.43-10.441-10.43-2.7461 0-5.2188 1.0781-7.0938 2.8086v-33.898c1.8711 1.7383 4.3438 2.8086 7.0938 2.8086 5.7617 0 10.441-4.6797 10.441-10.441 0-2.9531-1.2461-5.6289-3.2383-7.5234h34.824c-1.9922 1.8945-3.2383 4.5703-3.2383 7.5234 0 5.7617 4.668 10.441 10.441 10.441 5.7617 0 10.441-4.6797 10.441-10.441 0-2.9531-1.2461-5.6289-3.2383-7.5234h34.691c-1.9922 1.8945-3.2383 4.5703-3.2383 7.5234 0 5.7617 4.668 10.441 10.441 10.441 5.7617 0 10.441-4.6797 10.441-10.441 0-2.9531-1.2461-5.6289-3.2383-7.5234h40.078l-46.355 46.332c-0.30078-0.023438-0.61328-0.097657-0.92578-0.097657-5.7734 0-10.441 4.6797-10.441 10.43 0 5.7617 4.668 10.441 10.441 10.441 4.9688 0 9.1094-3.4688 10.164-8.125l12.121 12.121c-4.6211 1.0781-8.0742 5.207-8.0742 10.152 0 5.7461 4.6797 10.43 10.441 10.43 4.957 0 9.0703-3.457 10.152-8.0742zm-946-898.56c0 5.7617-4.6797 10.441-10.441 10.441-5.7734 0-10.441-4.6797-10.441-10.441s4.668-10.441 10.441-10.441c5.7734 0.003906 10.441 4.6836 10.441 10.441zm24.504 24.504c0 5.7617-4.6797 10.441-10.441 10.441s-10.441-4.6797-10.441-10.441c0-5.7461 4.6797-10.43 10.441-10.43 5.7617 0.003906 10.441 4.6836 10.441 10.43zm24.66 24.578c0 5.7617-4.6797 10.441-10.441 10.441-5.7734 0-10.441-4.6797-10.441-10.441 0-5.7617 4.668-10.43 10.441-10.43 5.7617 0 10.441 4.668 10.441 10.43zm24.527 24.574c0 5.7617-4.668 10.441-10.441 10.441-5.7617 0-10.441-4.668-10.441-10.441 0-5.7617 4.6797-10.441 10.441-10.441 5.7734 0.015625 10.441 4.6836 10.441 10.441zm98.316 442.12v0.023438 0.023438c0 5.7617-4.6797 10.441-10.453 10.441-5.7617 0-10.441-4.668-10.441-10.441v-0.023438-0.023438c0-5.7617 4.668-10.43 10.441-10.43 5.7852 0 10.453 4.6562 10.453 10.43zm147.53 0v0.023438 0.023438c0 5.7617-4.668 10.441-10.441 10.441-5.7617 0-10.441-4.668-10.441-10.441v-0.023438-0.023438c0-5.7617 4.6797-10.43 10.441-10.43 5.7734 0 10.441 4.6562 10.441 10.43zm-242.1-417.53c0-5.7617 4.6797-10.441 10.441-10.441 5.7734 0 10.441 4.668 10.441 10.441 0 5.7461-4.668 10.43-10.441 10.43-5.7734-0.003906-10.441-4.6836-10.441-10.43zm49.191 49.152c0-5.7617 4.6797-10.441 10.441-10.441 5.7617 0 10.441 4.668 10.441 10.441 0 5.7617-4.6797 10.43-10.441 10.43-5.7617-0.003906-10.441-4.6836-10.441-10.43zm49.152 0c0-5.7617 4.6797-10.441 10.441-10.441 5.7734 0 10.441 4.668 10.441 10.441 0 5.7617-4.668 10.43-10.441 10.43-5.7734-0.003906-10.441-4.6836-10.441-10.43zm-24.648 24.504c0-5.7617 4.668-10.441 10.441-10.441 5.7734 0 10.453 4.668 10.453 10.441 0 5.7617-4.6797 10.441-10.453 10.441-5.7734-0.003906-10.441-4.6836-10.441-10.441zm-24.504 24.574c0-5.7617 4.6797-10.441 10.441-10.441 5.7617 0 10.441 4.6797 10.441 10.441 0 5.7617-4.6797 10.43-10.441 10.43-5.7617 0-10.441-4.668-10.441-10.43zm49.152 0c0-5.7617 4.6797-10.441 10.441-10.441 5.7734 0 10.441 4.6797 10.441 10.441 0 5.7617-4.668 10.43-10.441 10.43s-10.441-4.668-10.441-10.43zm-73.766-73.656c0-5.7617 4.668-10.441 10.441-10.441s10.453 4.6797 10.453 10.441c0 5.7617-4.6797 10.43-10.453 10.43-5.7617 0-10.441-4.668-10.441-10.43zm909.72-122.82c0-5.7617 4.6797-10.441 10.441-10.441s10.441 4.6797 10.441 10.441-4.6797 10.441-10.441 10.441-10.441-4.6797-10.441-10.441zm-24.598 24.504c0-5.7461 4.6914-10.43 10.453-10.43 5.7461 0 10.43 4.6797 10.43 10.43 0 5.7617-4.6797 10.441-10.43 10.441-5.7617 0-10.453-4.668-10.453-10.441zm-24.59 24.578c0-5.7617 4.668-10.43 10.43-10.43 5.7617 0 10.453 4.668 10.453 10.43 0 5.7617-4.6914 10.441-10.453 10.441-5.7617-0.003906-10.43-4.6719-10.43-10.441zm-24.613 24.574c0-5.7617 4.6797-10.441 10.441-10.441 5.7617 0 10.441 4.6797 10.441 10.441s-4.6797 10.441-10.441 10.441c-5.7578 0-10.441-4.668-10.441-10.441zm-126.64 442.12v0.023438 0.023438c0 5.7617-4.6797 10.441-10.441 10.441s-10.441-4.668-10.441-10.441v-0.023438-0.023438c0-5.7617 4.6797-10.43 10.441-10.43 5.7578 0 10.441 4.6562 10.441 10.43zm77.457-392.95c0-5.7617 4.668-10.441 10.441-10.441 5.7617 0 10.441 4.6797 10.441 10.441 0 5.7617-4.6797 10.43-10.441 10.43-5.7734 0-10.441-4.668-10.441-10.43zm-52.812 24.578c0 5.7617-4.6797 10.43-10.441 10.43s-10.43-4.668-10.43-10.43c0-5.7617 4.668-10.441 10.43-10.441s10.441 4.668 10.441 10.441zm49.191 0c0 5.7617-4.6797 10.43-10.441 10.43-5.7617 0-10.453-4.668-10.453-10.43 0-5.7617 4.6914-10.441 10.453-10.441 5.7617 0 10.441 4.668 10.441 10.441zm28.27-49.152c0-5.7617 4.6797-10.441 10.441-10.441s10.441 4.668 10.441 10.441c0 5.7461-4.6797 10.43-10.441 10.43-5.7617-0.003906-10.441-4.6836-10.441-10.43zm-52.871 73.656c0 5.7617-4.6797 10.441-10.441 10.441-5.7734 0-10.441-4.6797-10.441-10.441s4.668-10.441 10.441-10.441 10.441 4.6797 10.441 10.441zm-24.59 24.574c0 5.7617-4.6797 10.43-10.441 10.43s-10.43-4.668-10.43-10.43c0-5.7617 4.668-10.441 10.43-10.441s10.441 4.6797 10.441 10.441zm49.191 0c0 5.7617-4.6797 10.43-10.441 10.43-5.7617 0-10.453-4.668-10.453-10.43 0-5.7617 4.6914-10.441 10.453-10.441 5.7617 0 10.441 4.6797 10.441 10.441zm-684.8 319.34v-0.023438-0.023438c0-5.7617 4.6797-10.43 10.453-10.43 5.7617 0 10.441 4.668 10.441 10.43v0.023438 0.023438c0 5.7617-4.6797 10.441-10.441 10.441-5.7852 0-10.453-4.668-10.453-10.441zm0 49.152c0-5.7617 4.6797-10.43 10.453-10.43 5.7617 0 10.441 4.668 10.441 10.43s-4.668 10.43-10.441 10.43c-5.7852 0-10.453-4.6562-10.453-10.43zm-52.812 24.574c0 5.7617-4.6797 10.43-10.441 10.43s-10.441-4.668-10.441-10.43 4.6797-10.43 10.441-10.43c5.7617 0.003907 10.441 4.6719 10.441 10.43zm49.152-49.148c0 5.7461-4.668 10.43-10.441 10.43-5.7617 0-10.441-4.6797-10.441-10.43 0-5.7617 4.6797-10.441 10.441-10.441 5.7734 0 10.441 4.6797 10.441 10.441zm122.88 24.574c0 5.7617-4.668 10.43-10.441 10.43-5.7617 0-10.441-4.668-10.441-10.43s4.6797-10.43 10.441-10.43c5.7734 0 10.441 4.668 10.441 10.43zm-24.492-24.574c0 5.7461-4.6797 10.43-10.453 10.43-5.7734 0-10.453-4.6797-10.453-10.43 0-5.7617 4.6797-10.441 10.453-10.441 5.7734 0 10.453 4.6797 10.453 10.441zm49.141 0c0 5.7461-4.668 10.43-10.441 10.43-5.7617 0-10.441-4.6797-10.441-10.43 0-5.7617 4.6797-10.441 10.441-10.441 5.7734 0 10.441 4.6797 10.441 10.441zm-196.68 98.242c0 5.7461-4.6797 10.43-10.441 10.43s-10.441-4.6797-10.441-10.43c0-5.7617 4.6797-10.43 10.441-10.43s10.441 4.668 10.441 10.43zm172.03-24.574c0 5.7461-4.668 10.43-10.441 10.43-5.7617 0-10.441-4.6797-10.441-10.43 0-5.7617 4.6797-10.441 10.441-10.441 5.7734 0 10.441 4.6797 10.441 10.441zm-168.41 245.54c0-5.7461 4.668-10.43 10.441-10.43 5.7734 0 10.453 4.6797 10.453 10.43 0 5.7617-4.6797 10.441-10.453 10.441-5.7734-0.003906-10.441-4.6719-10.441-10.441zm-24.504-24.578c0-5.7461 4.6797-10.43 10.441-10.43 5.7617 0 10.441 4.6797 10.441 10.43 0 5.7617-4.6797 10.441-10.441 10.441-5.7617 0-10.441-4.668-10.441-10.441zm0 49.164c0-5.7617 4.6797-10.43 10.441-10.43 5.7617 0 10.441 4.668 10.441 10.43 0 5.7461-4.6797 10.43-10.441 10.43-5.7617 0-10.441-4.6797-10.441-10.43zm49.152-49.164c0-5.7461 4.6797-10.43 10.441-10.43 5.7734 0 10.441 4.6797 10.441 10.43 0 5.7617-4.668 10.441-10.441 10.441s-10.441-4.668-10.441-10.441zm0 49.164c0-5.7617 4.6797-10.43 10.441-10.43 5.7734 0 10.441 4.668 10.441 10.43 0 5.7461-4.668 10.43-10.441 10.43s-10.441-4.6797-10.441-10.43zm-77.461 49.082c0 5.7617-4.668 10.441-10.441 10.441-5.7617 0-10.441-4.6797-10.441-10.441 0-5.7461 4.6797-10.43 10.441-10.43 5.7734 0 10.441 4.668 10.441 10.43zm-24.625 24.586c0 5.7461-4.668 10.43-10.441 10.43-5.7617 0-10.441-4.6797-10.441-10.43 0-5.7617 4.6797-10.43 10.441-10.43 5.7734-0.007813 10.441 4.6602 10.441 10.43zm-49.188 49.215c0 5.7617-4.6797 10.441-10.441 10.441s-10.441-4.6797-10.441-10.441c0-5.7461 4.6797-10.43 10.441-10.43s10.441 4.6797 10.441 10.43zm-24.504 24.586c0 5.7461-4.6797 10.43-10.441 10.43-5.7734 0-10.441-4.6797-10.441-10.43 0-5.7617 4.668-10.441 10.441-10.441 5.7734 0.003907 10.441 4.6719 10.441 10.441zm49.164-49.164c0 5.7617-4.6797 10.441-10.441 10.441-5.7734 0-10.441-4.6797-10.441-10.441 0-5.7461 4.668-10.43 10.441-10.43 5.7617 0.003906 10.441 4.6836 10.441 10.43zm172.03-270.13c0 5.7617-4.668 10.441-10.441 10.441-5.7734 0-10.453-4.6797-10.453-10.441 0-5.7461 4.6797-10.43 10.453-10.43 5.7734-0.007813 10.441 4.6719 10.441 10.43zm-73.691-24.574c0 5.7617-4.6797 10.441-10.441 10.441s-10.441-4.6797-10.441-10.441c0-5.7617 4.6797-10.43 10.441-10.43s10.441 4.6562 10.441 10.43zm172.03 24.574c0 5.7617-4.668 10.441-10.441 10.441-5.7617 0-10.441-4.6797-10.441-10.441 0-5.7461 4.6797-10.43 10.441-10.43 5.7734-0.007813 10.441 4.6719 10.441 10.43zm-196.63 196.34c0 5.7461-4.6797 10.43-10.453 10.43-5.7617 0-10.441-4.6797-10.441-10.43 0-5.7617 4.668-10.441 10.441-10.441 5.7734 0.003906 10.453 4.6719 10.453 10.441zm688.38-343.74c0 5.7617-4.6797 10.43-10.441 10.43s-10.441-4.668-10.441-10.43 4.6797-10.43 10.441-10.43c5.7578 0 10.441 4.668 10.441 10.43zm-122.88-24.574c0 5.7461-4.6797 10.43-10.441 10.43-5.7617 0-10.441-4.6797-10.441-10.43 0-5.7617 4.6797-10.441 10.441-10.441 5.7617 0 10.441 4.6797 10.441 10.441zm147.53 0c0 5.7461-4.6797 10.43-10.441 10.43s-10.43-4.6797-10.43-10.43c0-5.7617 4.668-10.441 10.43-10.441s10.441 4.6797 10.441 10.441zm49.191 49.148c0 5.7617-4.6797 10.43-10.441 10.43-5.7617 0-10.453-4.668-10.453-10.43s4.6914-10.43 10.453-10.43c5.7617 0.003907 10.441 4.6719 10.441 10.43zm-73.836 24.52c0 5.7461-4.6797 10.43-10.441 10.43s-10.441-4.6797-10.441-10.43c0-5.7617 4.6797-10.441 10.441-10.441 5.7578 0 10.441 4.6797 10.441 10.441zm73.836 24.574c0 5.7461-4.6797 10.43-10.441 10.43-5.7617 0-10.453-4.6797-10.453-10.43 0-5.7617 4.6914-10.43 10.453-10.43 5.7617 0 10.441 4.668 10.441 10.43zm-24.602 220.97c0 5.7617-4.6797 10.441-10.441 10.441-5.7734 0-10.441-4.6797-10.441-10.441 0-5.7461 4.668-10.43 10.441-10.43s10.441 4.6797 10.441 10.43zm-24.59-24.578c0 5.7617-4.6797 10.441-10.441 10.441s-10.43-4.6797-10.43-10.441c0-5.7461 4.668-10.43 10.43-10.43 5.7617 0.003906 10.441 4.6836 10.441 10.43zm49.191 0c0 5.7617-4.6797 10.441-10.441 10.441-5.7617 0-10.453-4.6797-10.453-10.441 0-5.7461 4.6914-10.43 10.453-10.43 5.7617 0.003906 10.441 4.6836 10.441 10.43zm-49.191 49.164c0 5.7461-4.6797 10.43-10.441 10.43s-10.43-4.6797-10.43-10.43c0-5.7617 4.668-10.43 10.43-10.43 5.7617 0.003906 10.441 4.6602 10.441 10.43zm49.191 0c0 5.7461-4.6797 10.43-10.441 10.43-5.7617 0-10.453-4.6797-10.453-10.43 0-5.7617 4.6914-10.43 10.453-10.43 5.7617 0.003906 10.441 4.6602 10.441 10.43zm24.504 24.516c0 5.7461-4.6797 10.43-10.441 10.43-5.7734 0-10.441-4.6797-10.441-10.43 0-5.7617 4.668-10.441 10.441-10.441 5.7617 0.003906 10.441 4.6719 10.441 10.441zm24.648 24.566c0 5.7617-4.6797 10.441-10.441 10.441s-10.441-4.6797-10.441-10.441c0-5.7461 4.6797-10.43 10.441-10.43 5.7578 0 10.441 4.668 10.441 10.43zm3.6562 24.586c0-5.7617 4.6797-10.43 10.441-10.43 5.7617 0 10.441 4.668 10.441 10.43 0 5.7461-4.6797 10.43-10.441 10.43-5.7578 0-10.441-4.6797-10.441-10.43zm49.203 49.215c0-5.7461 4.6914-10.43 10.453-10.43 5.7461 0 10.43 4.6797 10.43 10.43 0 5.7617-4.6797 10.441-10.43 10.441-5.7617-0.003906-10.453-4.6719-10.453-10.441zm-24.59-24.578c0-5.7461 4.668-10.43 10.43-10.43 5.7617 0 10.453 4.6797 10.453 10.43 0 5.7617-4.6914 10.441-10.453 10.441-5.7617 0-10.43-4.668-10.43-10.441zm49.188 49.164c0-5.7617 4.6797-10.441 10.441-10.441s10.441 4.6797 10.441 10.441c0 5.7461-4.6797 10.43-10.441 10.43s-10.441-4.6797-10.441-10.43zm-200.45-319.3c0 5.7617-4.6797 10.441-10.441 10.441s-10.441-4.6797-10.441-10.441c0-5.7461 4.6797-10.43 10.441-10.43 5.7578 0.003906 10.441 4.6719 10.441 10.43zm73.836-24.574c0 5.7617-4.6797 10.441-10.441 10.441-5.7617 0-10.453-4.6797-10.453-10.441 0-5.7617 4.6914-10.43 10.453-10.43 5.7617 0 10.441 4.6562 10.441 10.43zm-193.02-171.97v-0.023438-0.023438c0-5.7617 4.668-10.43 10.43-10.43 5.7617 0 10.453 4.668 10.453 10.43v0.023438 0.023438c0 5.7617-4.6914 10.441-10.453 10.441-5.7617 0-10.43-4.668-10.43-10.441zm0 49.152c0-5.7617 4.668-10.43 10.43-10.43 5.7617 0 10.453 4.668 10.453 10.43s-4.6914 10.43-10.453 10.43c-5.7617 0-10.43-4.6562-10.43-10.43zm0 49.094c0-5.7617 4.668-10.441 10.43-10.441 5.7617 0 10.453 4.6797 10.453 10.441 0 5.7461-4.6914 10.43-10.453 10.43-5.7617-0.003907-10.43-4.6719-10.43-10.43zm20.883 98.301c0 5.7617-4.6914 10.441-10.453 10.441-5.7617 0-10.43-4.6797-10.43-10.441 0-5.7461 4.668-10.43 10.43-10.43 5.7617 0.003906 10.453 4.6719 10.453 10.43z"/>
</svg>
