<svg xmlns="http://www.w3.org/2000/svg" width="70" height="70" viewBox="0 0 24 24" stroke-width="2" stroke="#015163" fill="none" stroke-linecap="round" stroke-linejoin="round">
   <path stroke="none" d="M0 0h24v24H0z" fill="none"></path>
   <line x1="12" y1="18" x2="10" y2="22"></line>
   <line x1="12" y1="18" x2="14" y2="22"></line>
   <line x1="8" y1="22" x2="16" y2="22"></line>
   
   <path d="M7 21l4 -12m2 0l1.48 4.439m.949 2.847l1.571 4.714"></path>
   <circle cx="12" cy="7" r=".4"></circle>
   <path d="M16 5l3 3l-2 1l4 4l-3 1l4 4h-4"></path>
   <path d="M8 16v-2"></path>
   <path d="M5.824 15.995a3 3 0 0 1 -2.743 -3.69a2.998 2.998 0 0 1 .304 -4.833a3 3 0 0 1 4.615 -3.707a3 3 0 0 1 4.614 3.707a2.997 2.997 0 0 1 "></path>
</svg>
